<svg width="786" height="968" viewBox="0 0 786 968" fill="none" xmlns="http://www.w3.org/2000/svg">
<g opacity="0.6" clip-path="url(#clip0_23:2)">
<path d="M-221.953 356.268C-160.577 285.781 -39.3711 376.97 136.25 337.061C288.359 302.479 297.11 210.622 418.642 215.177C507.431 218.487 604.183 269.755 657.356 359.072C715.997 457.551 694.68 557.81 688.696 582.139C661.983 691.263 582.698 748.826 554.728 768.487C439.488 849.44 310.173 835.254 248.136 828.479C15.0999 802.957 -234.386 636.583 -245.495 455.701C-246.971 432.021 -249.658 388.098 -221.953 356.268Z" fill="url(#paint0_linear_23:2)"/>
</g>
<defs>
<linearGradient id="paint0_linear_23:2" x1="362.823" y1="69.8268" x2="128.583" y2="775.635" gradientUnits="userSpaceOnUse">
<stop stop-color="#F3F7FF"/>
<stop offset="1" stop-color="#DEEEFE"/>
</linearGradient>
<clipPath id="clip0_23:2">
<rect width="937.962" height="671.376" fill="white" transform="translate(-87.4224) rotate(21.4558)"/>
</clipPath>
</defs>
</svg>
